<svg width="345" height="698" viewBox="0 0 345 698" fill="none" xmlns="http://www.w3.org/2000/svg">
<path d="M173 696.5C173 696.5 127.59 656.59 138.821 640.064C142.539 634.592 152.724 642.105 155.569 637.637C159.827 630.949 141.507 615.727 145.319 610.61C148.607 606.197 158.704 613.064 161.688 610.539C173.337 600.681 101.853 572.342 104.163 556.252C106.812 537.8 131.49 548.8 135.665 540.815C145.329 522.333 72.4399 520.293 72.3114 490.476C72.2049 465.759 117.842 489.224 117.76 470C117.682 452 47.2563 464.417 47.0682 420.748C47.0056 406.231 75.6033 417.05 78.1972 409.236C85.8919 386.054 13.808 389.896 28.5027 363.153C35.9151 349.664 56.2171 373.235 63.1882 363.004C81.7598 335.748 -4.78117 326.809 4.85548 302.05C11.6294 284.646 37.9137 295.61 41.8 283.451C47.9528 264.199 -0.850751 244.008 10.3708 225.28C15.0874 217.409 28.1683 223.677 31.7628 215.227C41.7943 191.643 -1.67442 192.615 1.96286 173.374C4.78362 158.453 33.922 173.629 37.7787 164.196C45.5319 145.233 -14.9185 122.336 31.2047 85.6641C70.4333 54.474 111.355 143.292 117.76 137.601C127.077 129.322 47.8508 5.9106 173.742 1.71875" stroke="white" stroke-width="3"/>
<path d="M173 696.499C173 696.499 220.06 656.193 208.687 639.764C204.922 634.325 194.801 641.925 191.919 637.482C187.603 630.831 205.791 615.451 201.935 610.367C198.61 605.983 188.571 612.937 185.566 610.438C173.832 600.68 245.069 571.726 242.621 555.657C239.814 537.229 215.231 548.44 210.987 540.492C201.165 522.094 274.033 519.426 273.905 489.609C273.798 464.892 232.583 483.223 232.5 463.999C232.423 445.999 298.735 463.335 298.546 419.666C298.484 405.149 269.981 416.214 267.319 408.422C259.425 385.308 331.54 388.529 316.615 361.914C309.087 348.488 288.989 372.234 281.93 362.063C263.124 334.968 349.585 325.284 339.735 300.609C332.811 283.264 306.622 294.454 302.632 282.329C296.313 263.131 344.941 242.52 333.559 223.89C328.774 216.059 315.748 222.44 312.081 214.021C301.846 190.524 345.322 191.122 341.519 171.913C338.57 157.017 309.563 172.443 305.625 163.044C297.709 144.148 357.96 120.731 311.523 84.4581C272.027 53.6071 231.872 142.774 225.418 137.139C216.029 128.94 297.231 4.83784 171.308 1.73073" stroke="white" stroke-width="3"/>
<path d="M78.5173 284.838C130.258 467.437 174.015 569.577 174.015 569.577C174.015 569.577 212.26 472.08 267.691 284.024C323.123 95.9689 26.7767 102.239 78.5173 284.838Z" stroke="white" stroke-width="3"/>
<path d="M108.836 284.099C144.695 421.095 174.016 498.078 174.016 498.078C174.016 498.078 197.945 422.59 236.649 283.549C275.352 144.508 70.7219 138.492 108.836 284.099Z" stroke="#1800AE" stroke-width="7"/>
</svg>
