<svg width="371" height="2349" viewBox="0 0 371 2349" fill="none" xmlns="http://www.w3.org/2000/svg">
<path d="M74.3865 128.624L73.5275 127.995L72.65 128.599C62.741 135.413 53.4849 136.749 45.156 134.482C36.7632 132.197 29.1035 126.195 22.5909 117.942C9.54926 101.417 1.5 76.3568 1.5 56.3934C1.5 36.4767 9.57652 18.573 22.391 8.96706C35.0864 -0.549646 52.7091 -2.12967 72.4614 11.0809L73.3021 11.6432L74.1385 11.0746C93.5518 -2.12215 111.278 -0.557114 124.168 8.97292C137.17 18.5865 145.5 36.4936 145.5 56.3934C145.5 76.329 136.841 101.389 123.479 117.929C116.805 126.191 109.063 132.198 100.781 134.483C92.5739 136.748 83.6497 135.411 74.3865 128.624Z" stroke="white" stroke-width="3"/>
<path d="M298.387 128.624L297.527 127.995L296.65 128.599C286.741 135.413 277.485 136.749 269.156 134.482C260.763 132.197 253.103 126.195 246.591 117.942C233.549 101.417 225.5 76.3568 225.5 56.3934C225.5 36.4767 233.577 18.573 246.391 8.96706C259.086 -0.549646 276.709 -2.12967 296.461 11.0809L297.302 11.6432L298.139 11.0746C317.552 -2.12215 335.278 -0.557114 348.168 8.97292C361.17 18.5865 369.5 36.4936 369.5 56.3934C369.5 76.329 360.841 101.389 347.479 117.929C340.805 126.191 333.063 132.198 324.781 134.483C316.574 136.748 307.65 135.411 298.387 128.624Z" stroke="white" stroke-width="3"/>
<path d="M74.3865 373.624L73.5275 372.995L72.65 373.599C62.741 380.413 53.4849 381.749 45.156 379.482C36.7632 377.197 29.1035 371.195 22.5909 362.942C9.54926 346.417 1.5 321.357 1.5 301.393C1.5 281.477 9.57652 263.573 22.391 253.967C35.0864 244.45 52.7091 242.87 72.4614 256.081L73.3021 256.643L74.1385 256.075C93.5518 242.878 111.278 244.443 124.168 253.973C137.17 263.587 145.5 281.494 145.5 301.393C145.5 321.329 136.841 346.389 123.479 362.929C116.805 371.191 109.063 377.198 100.781 379.483C92.5739 381.748 83.6497 380.411 74.3865 373.624Z" stroke="white" stroke-width="3"/>
<path d="M298.387 373.624L297.527 372.995L296.65 373.599C286.741 380.413 277.485 381.749 269.156 379.482C260.763 377.197 253.103 371.195 246.591 362.942C233.549 346.417 225.5 321.357 225.5 301.393C225.5 281.477 233.577 263.573 246.391 253.967C259.086 244.45 276.709 242.87 296.461 256.081L297.302 256.643L298.139 256.075C317.552 242.878 335.278 244.443 348.168 253.973C361.17 263.587 369.5 281.494 369.5 301.393C369.5 321.329 360.841 346.389 347.479 362.929C340.805 371.191 333.063 377.198 324.781 379.483C316.574 381.748 307.65 380.411 298.387 373.624Z" stroke="white" stroke-width="3"/>
<path d="M74.3865 618.624L73.5275 617.995L72.65 618.599C62.741 625.413 53.4849 626.749 45.156 624.482C36.7632 622.197 29.1035 616.195 22.5909 607.942C9.54926 591.417 1.5 566.357 1.5 546.393C1.5 526.477 9.57652 508.573 22.391 498.967C35.0864 489.45 52.7091 487.87 72.4614 501.081L73.3021 501.643L74.1385 501.075C93.5518 487.878 111.278 489.443 124.168 498.973C137.17 508.587 145.5 526.494 145.5 546.393C145.5 566.329 136.841 591.389 123.479 607.929C116.805 616.191 109.063 622.198 100.781 624.483C92.5739 626.748 83.6497 625.411 74.3865 618.624Z" stroke="white" stroke-width="3"/>
<path d="M298.387 618.624L297.527 617.995L296.65 618.599C286.741 625.413 277.485 626.749 269.156 624.482C260.763 622.197 253.103 616.195 246.591 607.942C233.549 591.417 225.5 566.357 225.5 546.393C225.5 526.477 233.577 508.573 246.391 498.967C259.086 489.45 276.709 487.87 296.461 501.081L297.302 501.643L298.139 501.075C317.552 487.878 335.278 489.443 348.168 498.973C361.17 508.587 369.5 526.494 369.5 546.393C369.5 566.329 360.841 591.389 347.479 607.929C340.805 616.191 333.063 622.198 324.781 624.483C316.574 626.748 307.65 625.411 298.387 618.624Z" stroke="white" stroke-width="3"/>
<path d="M74.3865 863.624L73.5275 862.995L72.65 863.599C62.741 870.413 53.4849 871.749 45.156 869.482C36.7632 867.197 29.1035 861.195 22.5909 852.942C9.54926 836.417 1.5 811.357 1.5 791.393C1.5 771.477 9.57652 753.573 22.391 743.967C35.0864 734.45 52.7091 732.87 72.4614 746.081L73.3021 746.643L74.1385 746.075C93.5518 732.878 111.278 734.443 124.168 743.973C137.17 753.587 145.5 771.494 145.5 791.393C145.5 811.329 136.841 836.389 123.479 852.929C116.805 861.191 109.063 867.198 100.781 869.483C92.5739 871.748 83.6497 870.411 74.3865 863.624Z" stroke="white" stroke-width="3"/>
<path d="M298.387 863.624L297.527 862.995L296.65 863.599C286.741 870.413 277.485 871.749 269.156 869.482C260.763 867.197 253.103 861.195 246.591 852.942C233.549 836.417 225.5 811.357 225.5 791.393C225.5 771.477 233.577 753.573 246.391 743.967C259.086 734.45 276.709 732.87 296.461 746.081L297.302 746.643L298.139 746.075C317.552 732.878 335.278 734.443 348.168 743.973C361.17 753.587 369.5 771.494 369.5 791.393C369.5 811.329 360.841 836.389 347.479 852.929C340.805 861.191 333.063 867.198 324.781 869.483C316.574 871.748 307.65 870.411 298.387 863.624Z" stroke="white" stroke-width="3"/>
<path d="M74.3865 1108.62L73.5275 1108L72.65 1108.6C62.741 1115.41 53.4849 1116.75 45.156 1114.48C36.7632 1112.2 29.1035 1106.19 22.5909 1097.94C9.54926 1081.42 1.5 1056.36 1.5 1036.39C1.5 1016.48 9.57652 998.573 22.391 988.967C35.0864 979.45 52.7091 977.87 72.4614 991.081L73.3021 991.643L74.1385 991.075C93.5518 977.878 111.278 979.443 124.168 988.973C137.17 998.587 145.5 1016.49 145.5 1036.39C145.5 1056.33 136.841 1081.39 123.479 1097.93C116.805 1106.19 109.063 1112.2 100.781 1114.48C92.5739 1116.75 83.6497 1115.41 74.3865 1108.62Z" stroke="white" stroke-width="3"/>
<path d="M298.387 1108.62L297.527 1108L296.65 1108.6C286.741 1115.41 277.485 1116.75 269.156 1114.48C260.763 1112.2 253.103 1106.19 246.591 1097.94C233.549 1081.42 225.5 1056.36 225.5 1036.39C225.5 1016.48 233.577 998.573 246.391 988.967C259.086 979.45 276.709 977.87 296.461 991.081L297.302 991.643L298.139 991.075C317.552 977.878 335.278 979.443 348.168 988.973C361.17 998.587 369.5 1016.49 369.5 1036.39C369.5 1056.33 360.841 1081.39 347.479 1097.93C340.805 1106.19 333.063 1112.2 324.781 1114.48C316.574 1116.75 307.65 1115.41 298.387 1108.62Z" stroke="white" stroke-width="3"/>
<path d="M75.0267 106.301L73.0331 104.853L70.9973 106.241C64.7812 110.481 59.2245 111.18 54.3439 109.863C49.3187 108.506 44.5245 104.875 40.2967 99.5623C31.8002 88.8856 26.5 72.5456 26.5 59.6195C26.5 45.89 31.9585 34.5428 39.7745 29.4805C43.6129 26.9944 48.1226 25.9316 53.177 26.8227C58.2876 27.7238 64.19 30.6701 70.582 36.6328L73.0242 38.911L75.4142 36.578C81.5641 30.5749 87.4943 27.6429 92.765 26.781C98.0081 25.9237 102.855 27.0689 107.009 29.6726C115.413 34.9405 121.179 46.3847 120.436 59.4202C119.682 72.638 113.714 89.0341 104.94 99.6922C100.566 105.005 95.7348 108.603 90.8109 109.927C86.0573 111.205 80.7863 110.486 75.0267 106.301Z" stroke="#1800AE" stroke-width="7"/>
<path d="M299.027 106.301L297.033 104.853L294.997 106.241C288.781 110.481 283.225 111.18 278.344 109.863C273.319 108.506 268.525 104.875 264.297 99.5623C255.8 88.8856 250.5 72.5456 250.5 59.6195C250.5 45.89 255.958 34.5428 263.775 29.4805C267.613 26.9944 272.123 25.9316 277.177 26.8227C282.288 27.7238 288.19 30.6701 294.582 36.6328L297.024 38.911L299.414 36.578C305.564 30.5749 311.494 27.6429 316.765 26.781C322.008 25.9237 326.855 27.0689 331.009 29.6726C339.413 34.9405 345.179 46.3847 344.436 59.4202C343.682 72.638 337.714 89.0341 328.94 99.6922C324.566 105.005 319.735 108.603 314.811 109.927C310.057 111.205 304.786 110.486 299.027 106.301Z" stroke="#1800AE" stroke-width="7"/>
<path d="M299.027 351.301L297.033 349.853L294.997 351.241C288.781 355.481 283.225 356.18 278.344 354.863C273.319 353.506 268.525 349.875 264.297 344.562C255.8 333.886 250.5 317.546 250.5 304.62C250.5 290.89 255.958 279.543 263.775 274.48C267.613 271.994 272.123 270.932 277.177 271.823C282.288 272.724 288.19 275.67 294.582 281.633L297.024 283.911L299.414 281.578C305.564 275.575 311.494 272.643 316.765 271.781C322.008 270.924 326.855 272.069 331.009 274.673C339.413 279.94 345.179 291.385 344.436 304.42C343.682 317.638 337.714 334.034 328.94 344.692C324.566 350.005 319.735 353.603 314.811 354.927C310.057 356.205 304.786 355.486 299.027 351.301Z" stroke="#1800AE" stroke-width="7"/>
<path d="M75.0267 351.301L73.0331 349.853L70.9973 351.241C64.7812 355.481 59.2245 356.18 54.3439 354.863C49.3187 353.506 44.5245 349.875 40.2967 344.562C31.8002 333.886 26.5 317.546 26.5 304.62C26.5 290.89 31.9585 279.543 39.7745 274.48C43.6129 271.994 48.1226 270.932 53.177 271.823C58.2876 272.724 64.19 275.67 70.582 281.633L73.0242 283.911L75.4142 281.578C81.5641 275.575 87.4943 272.643 92.765 271.781C98.0081 270.924 102.855 272.069 107.009 274.673C115.413 279.94 121.179 291.385 120.436 304.42C119.682 317.638 113.714 334.034 104.94 344.692C100.566 350.005 95.7348 353.603 90.8109 354.927C86.0573 356.205 80.7863 355.486 75.0267 351.301Z" stroke="#1800AE" stroke-width="7"/>
<path d="M75.0267 596.301L73.0331 594.853L70.9973 596.241C64.7812 600.481 59.2245 601.18 54.3439 599.863C49.3187 598.506 44.5245 594.875 40.2967 589.562C31.8002 578.886 26.5 562.546 26.5 549.62C26.5 535.89 31.9585 524.543 39.7745 519.48C43.6129 516.994 48.1226 515.932 53.177 516.823C58.2876 517.724 64.19 520.67 70.582 526.633L73.0242 528.911L75.4142 526.578C81.5641 520.575 87.4943 517.643 92.765 516.781C98.0081 515.924 102.855 517.069 107.009 519.673C115.413 524.94 121.179 536.385 120.436 549.42C119.682 562.638 113.714 579.034 104.94 589.692C100.566 595.005 95.7348 598.603 90.8109 599.927C86.0573 601.205 80.7863 600.486 75.0267 596.301Z" stroke="#1800AE" stroke-width="7"/>
<path d="M299.027 596.301L297.033 594.853L294.997 596.241C288.781 600.481 283.225 601.18 278.344 599.863C273.319 598.506 268.525 594.875 264.297 589.562C255.8 578.886 250.5 562.546 250.5 549.62C250.5 535.89 255.958 524.543 263.775 519.48C267.613 516.994 272.123 515.932 277.177 516.823C282.288 517.724 288.19 520.67 294.582 526.633L297.024 528.911L299.414 526.578C305.564 520.575 311.494 517.643 316.765 516.781C322.008 515.924 326.855 517.069 331.009 519.673C339.413 524.94 345.179 536.385 344.436 549.42C343.682 562.638 337.714 579.034 328.94 589.692C324.566 595.005 319.735 598.603 314.811 599.927C310.057 601.205 304.786 600.486 299.027 596.301Z" stroke="#1800AE" stroke-width="7"/>
<path d="M299.027 841.301L297.033 839.853L294.997 841.241C288.781 845.481 283.225 846.18 278.344 844.863C273.319 843.506 268.525 839.875 264.297 834.562C255.8 823.886 250.5 807.546 250.5 794.62C250.5 780.89 255.958 769.543 263.775 764.48C267.613 761.994 272.123 760.932 277.177 761.823C282.288 762.724 288.19 765.67 294.582 771.633L297.024 773.911L299.414 771.578C305.564 765.575 311.494 762.643 316.765 761.781C322.008 760.924 326.855 762.069 331.009 764.673C339.413 769.94 345.179 781.385 344.436 794.42C343.682 807.638 337.714 824.034 328.94 834.692C324.566 840.005 319.735 843.603 314.811 844.927C310.057 846.205 304.786 845.486 299.027 841.301Z" stroke="#1800AE" stroke-width="7"/>
<path d="M75.0267 841.301L73.0331 839.853L70.9973 841.241C64.7812 845.481 59.2245 846.18 54.3439 844.863C49.3187 843.506 44.5245 839.875 40.2967 834.562C31.8002 823.886 26.5 807.546 26.5 794.62C26.5 780.89 31.9585 769.543 39.7745 764.48C43.6129 761.994 48.1226 760.932 53.177 761.823C58.2876 762.724 64.19 765.67 70.582 771.633L73.0242 773.911L75.4142 771.578C81.5641 765.575 87.4943 762.643 92.765 761.781C98.0081 760.924 102.855 762.069 107.009 764.673C115.413 769.94 121.179 781.385 120.436 794.42C119.682 807.638 113.714 824.034 104.94 834.692C100.566 840.005 95.7348 843.603 90.8109 844.927C86.0573 846.205 80.7863 845.486 75.0267 841.301Z" stroke="#1800AE" stroke-width="7"/>
<path d="M75.0267 1086.3L73.0331 1084.85L70.9973 1086.24C64.7812 1090.48 59.2245 1091.18 54.3439 1089.86C49.3187 1088.51 44.5245 1084.88 40.2967 1079.56C31.8002 1068.89 26.5 1052.55 26.5 1039.62C26.5 1025.89 31.9585 1014.54 39.7745 1009.48C43.6129 1006.99 48.1226 1005.93 53.177 1006.82C58.2876 1007.72 64.19 1010.67 70.582 1016.63L73.0242 1018.91L75.4142 1016.58C81.5641 1010.57 87.4943 1007.64 92.765 1006.78C98.0081 1005.92 102.855 1007.07 107.009 1009.67C115.413 1014.94 121.179 1026.38 120.436 1039.42C119.682 1052.64 113.714 1069.03 104.94 1079.69C100.566 1085.01 95.7348 1088.6 90.8109 1089.93C86.0573 1091.21 80.7863 1090.49 75.0267 1086.3Z" stroke="#1800AE" stroke-width="7"/>
<path d="M299.027 1086.3L297.033 1084.85L294.997 1086.24C288.781 1090.48 283.225 1091.18 278.344 1089.86C273.319 1088.51 268.525 1084.88 264.297 1079.56C255.8 1068.89 250.5 1052.55 250.5 1039.62C250.5 1025.89 255.958 1014.54 263.775 1009.48C267.613 1006.99 272.123 1005.93 277.177 1006.82C282.288 1007.72 288.19 1010.67 294.582 1016.63L297.024 1018.91L299.414 1016.58C305.564 1010.57 311.494 1007.64 316.765 1006.78C322.008 1005.92 326.855 1007.07 331.009 1009.67C339.413 1014.94 345.179 1026.38 344.436 1039.42C343.682 1052.64 337.714 1069.03 328.94 1079.69C324.566 1085.01 319.735 1088.6 314.811 1089.93C310.057 1091.21 304.786 1090.49 299.027 1086.3Z" stroke="#1800AE" stroke-width="7"/>
<circle cx="74" cy="69" r="15" fill="#1800AE"/>
<circle cx="298" cy="69" r="15" fill="#1800AE"/>
<circle cx="74" cy="314" r="15" fill="#1800AE"/>
<circle cx="298" cy="314" r="15" fill="#1800AE"/>
<circle cx="298" cy="559" r="15" fill="#1800AE"/>
<circle cx="74" cy="559" r="15" fill="#1800AE"/>
<circle cx="74" cy="804" r="15" fill="#1800AE"/>
<circle cx="74" cy="1049" r="15" fill="#1800AE"/>
<circle cx="298" cy="1049" r="15" fill="#1800AE"/>
<circle cx="298" cy="804" r="15" fill="#1800AE"/>
<path d="M74.3865 1360.62L73.5275 1360L72.65 1360.6C62.741 1367.41 53.4849 1368.75 45.156 1366.48C36.7632 1364.2 29.1035 1358.19 22.5909 1349.94C9.54926 1333.42 1.5 1308.36 1.5 1288.39C1.5 1268.48 9.57652 1250.57 22.391 1240.97C35.0864 1231.45 52.7091 1229.87 72.4614 1243.08L73.3021 1243.64L74.1385 1243.07C93.5518 1229.88 111.278 1231.44 124.168 1240.97C137.17 1250.59 145.5 1268.49 145.5 1288.39C145.5 1308.33 136.841 1333.39 123.479 1349.93C116.805 1358.19 109.063 1364.2 100.781 1366.48C92.5739 1368.75 83.6497 1367.41 74.3865 1360.62Z" stroke="white" stroke-width="3"/>
<path d="M298.387 1360.62L297.527 1360L296.65 1360.6C286.741 1367.41 277.485 1368.75 269.156 1366.48C260.763 1364.2 253.103 1358.19 246.591 1349.94C233.549 1333.42 225.5 1308.36 225.5 1288.39C225.5 1268.48 233.577 1250.57 246.391 1240.97C259.086 1231.45 276.709 1229.87 296.461 1243.08L297.302 1243.64L298.139 1243.07C317.552 1229.88 335.278 1231.44 348.168 1240.97C361.17 1250.59 369.5 1268.49 369.5 1288.39C369.5 1308.33 360.841 1333.39 347.479 1349.93C340.805 1358.19 333.063 1364.2 324.781 1366.48C316.574 1368.75 307.65 1367.41 298.387 1360.62Z" stroke="white" stroke-width="3"/>
<path d="M74.3865 1605.62L73.5275 1605L72.65 1605.6C62.741 1612.41 53.4849 1613.75 45.156 1611.48C36.7632 1609.2 29.1035 1603.19 22.5909 1594.94C9.54926 1578.42 1.5 1553.36 1.5 1533.39C1.5 1513.48 9.57652 1495.57 22.391 1485.97C35.0864 1476.45 52.7091 1474.87 72.4614 1488.08L73.3021 1488.64L74.1385 1488.07C93.5518 1474.88 111.278 1476.44 124.168 1485.97C137.17 1495.59 145.5 1513.49 145.5 1533.39C145.5 1553.33 136.841 1578.39 123.479 1594.93C116.805 1603.19 109.063 1609.2 100.781 1611.48C92.5739 1613.75 83.6497 1612.41 74.3865 1605.62Z" stroke="white" stroke-width="3"/>
<path d="M298.387 1605.62L297.527 1605L296.65 1605.6C286.741 1612.41 277.485 1613.75 269.156 1611.48C260.763 1609.2 253.103 1603.19 246.591 1594.94C233.549 1578.42 225.5 1553.36 225.5 1533.39C225.5 1513.48 233.577 1495.57 246.391 1485.97C259.086 1476.45 276.709 1474.87 296.461 1488.08L297.302 1488.64L298.139 1488.07C317.552 1474.88 335.278 1476.44 348.168 1485.97C361.17 1495.59 369.5 1513.49 369.5 1533.39C369.5 1553.33 360.841 1578.39 347.479 1594.93C340.805 1603.19 333.063 1609.2 324.781 1611.48C316.574 1613.75 307.65 1612.41 298.387 1605.62Z" stroke="white" stroke-width="3"/>
<path d="M74.3865 1850.62L73.5275 1850L72.65 1850.6C62.741 1857.41 53.4849 1858.75 45.156 1856.48C36.7632 1854.2 29.1035 1848.19 22.5909 1839.94C9.54926 1823.42 1.5 1798.36 1.5 1778.39C1.5 1758.48 9.57652 1740.57 22.391 1730.97C35.0864 1721.45 52.7091 1719.87 72.4614 1733.08L73.3021 1733.64L74.1385 1733.07C93.5518 1719.88 111.278 1721.44 124.168 1730.97C137.17 1740.59 145.5 1758.49 145.5 1778.39C145.5 1798.33 136.841 1823.39 123.479 1839.93C116.805 1848.19 109.063 1854.2 100.781 1856.48C92.5739 1858.75 83.6497 1857.41 74.3865 1850.62Z" stroke="white" stroke-width="3"/>
<path d="M298.387 1850.62L297.527 1850L296.65 1850.6C286.741 1857.41 277.485 1858.75 269.156 1856.48C260.763 1854.2 253.103 1848.19 246.591 1839.94C233.549 1823.42 225.5 1798.36 225.5 1778.39C225.5 1758.48 233.577 1740.57 246.391 1730.97C259.086 1721.45 276.709 1719.87 296.461 1733.08L297.302 1733.64L298.139 1733.07C317.552 1719.88 335.278 1721.44 348.168 1730.97C361.17 1740.59 369.5 1758.49 369.5 1778.39C369.5 1798.33 360.841 1823.39 347.479 1839.93C340.805 1848.19 333.063 1854.2 324.781 1856.48C316.574 1858.75 307.65 1857.41 298.387 1850.62Z" stroke="white" stroke-width="3"/>
<path d="M74.3865 2095.62L73.5275 2095L72.65 2095.6C62.741 2102.41 53.4849 2103.75 45.156 2101.48C36.7632 2099.2 29.1035 2093.19 22.5909 2084.94C9.54926 2068.42 1.5 2043.36 1.5 2023.39C1.5 2003.48 9.57652 1985.57 22.391 1975.97C35.0864 1966.45 52.7091 1964.87 72.4614 1978.08L73.3021 1978.64L74.1385 1978.07C93.5518 1964.88 111.278 1966.44 124.168 1975.97C137.17 1985.59 145.5 2003.49 145.5 2023.39C145.5 2043.33 136.841 2068.39 123.479 2084.93C116.805 2093.19 109.063 2099.2 100.781 2101.48C92.5739 2103.75 83.6497 2102.41 74.3865 2095.62Z" stroke="white" stroke-width="3"/>
<path d="M298.387 2095.62L297.527 2095L296.65 2095.6C286.741 2102.41 277.485 2103.75 269.156 2101.48C260.763 2099.2 253.103 2093.19 246.591 2084.94C233.549 2068.42 225.5 2043.36 225.5 2023.39C225.5 2003.48 233.577 1985.57 246.391 1975.97C259.086 1966.45 276.709 1964.87 296.461 1978.08L297.302 1978.64L298.139 1978.07C317.552 1964.88 335.278 1966.44 348.168 1975.97C361.17 1985.59 369.5 2003.49 369.5 2023.39C369.5 2043.33 360.841 2068.39 347.479 2084.93C340.805 2093.19 333.063 2099.2 324.781 2101.48C316.574 2103.75 307.65 2102.41 298.387 2095.62Z" stroke="white" stroke-width="3"/>
<path d="M74.3865 2340.62L73.5275 2340L72.65 2340.6C62.741 2347.41 53.4849 2348.75 45.156 2346.48C36.7632 2344.2 29.1035 2338.19 22.5909 2329.94C9.54926 2313.42 1.5 2288.36 1.5 2268.39C1.5 2248.48 9.57652 2230.57 22.391 2220.97C35.0864 2211.45 52.7091 2209.87 72.4614 2223.08L73.3021 2223.64L74.1385 2223.07C93.5518 2209.88 111.278 2211.44 124.168 2220.97C137.17 2230.59 145.5 2248.49 145.5 2268.39C145.5 2288.33 136.841 2313.39 123.479 2329.93C116.805 2338.19 109.063 2344.2 100.781 2346.48C92.5739 2348.75 83.6497 2347.41 74.3865 2340.62Z" stroke="white" stroke-width="3"/>
<path d="M298.387 2340.62L297.527 2340L296.65 2340.6C286.741 2347.41 277.485 2348.75 269.156 2346.48C260.763 2344.2 253.103 2338.19 246.591 2329.94C233.549 2313.42 225.5 2288.36 225.5 2268.39C225.5 2248.48 233.577 2230.57 246.391 2220.97C259.086 2211.45 276.709 2209.87 296.461 2223.08L297.302 2223.64L298.139 2223.07C317.552 2209.88 335.278 2211.44 348.168 2220.97C361.17 2230.59 369.5 2248.49 369.5 2268.39C369.5 2288.33 360.841 2313.39 347.479 2329.93C340.805 2338.19 333.063 2344.2 324.781 2346.48C316.574 2348.75 307.65 2347.41 298.387 2340.62Z" stroke="white" stroke-width="3"/>
<path d="M75.0267 1338.3L73.0331 1336.85L70.9973 1338.24C64.7812 1342.48 59.2245 1343.18 54.3439 1341.86C49.3187 1340.51 44.5245 1336.88 40.2967 1331.56C31.8002 1320.89 26.5 1304.55 26.5 1291.62C26.5 1277.89 31.9585 1266.54 39.7745 1261.48C43.6129 1258.99 48.1226 1257.93 53.177 1258.82C58.2876 1259.72 64.19 1262.67 70.582 1268.63L73.0242 1270.91L75.4142 1268.58C81.5641 1262.57 87.4943 1259.64 92.765 1258.78C98.0081 1257.92 102.855 1259.07 107.009 1261.67C115.413 1266.94 121.179 1278.38 120.436 1291.42C119.682 1304.64 113.714 1321.03 104.94 1331.69C100.566 1337.01 95.7348 1340.6 90.8109 1341.93C86.0573 1343.21 80.7863 1342.49 75.0267 1338.3Z" stroke="#1800AE" stroke-width="7"/>
<path d="M299.027 1338.3L297.033 1336.85L294.997 1338.24C288.781 1342.48 283.225 1343.18 278.344 1341.86C273.319 1340.51 268.525 1336.88 264.297 1331.56C255.8 1320.89 250.5 1304.55 250.5 1291.62C250.5 1277.89 255.958 1266.54 263.775 1261.48C267.613 1258.99 272.123 1257.93 277.177 1258.82C282.288 1259.72 288.19 1262.67 294.582 1268.63L297.024 1270.91L299.414 1268.58C305.564 1262.57 311.494 1259.64 316.765 1258.78C322.008 1257.92 326.855 1259.07 331.009 1261.67C339.413 1266.94 345.179 1278.38 344.436 1291.42C343.682 1304.64 337.714 1321.03 328.94 1331.69C324.566 1337.01 319.735 1340.6 314.811 1341.93C310.057 1343.21 304.786 1342.49 299.027 1338.3Z" stroke="#1800AE" stroke-width="7"/>
<path d="M299.027 1583.3L297.033 1581.85L294.997 1583.24C288.781 1587.48 283.225 1588.18 278.344 1586.86C273.319 1585.51 268.525 1581.88 264.297 1576.56C255.8 1565.89 250.5 1549.55 250.5 1536.62C250.5 1522.89 255.958 1511.54 263.775 1506.48C267.613 1503.99 272.123 1502.93 277.177 1503.82C282.288 1504.72 288.19 1507.67 294.582 1513.63L297.024 1515.91L299.414 1513.58C305.564 1507.57 311.494 1504.64 316.765 1503.78C322.008 1502.92 326.855 1504.07 331.009 1506.67C339.413 1511.94 345.179 1523.38 344.436 1536.42C343.682 1549.64 337.714 1566.03 328.94 1576.69C324.566 1582.01 319.735 1585.6 314.811 1586.93C310.057 1588.21 304.786 1587.49 299.027 1583.3Z" stroke="#1800AE" stroke-width="7"/>
<path d="M75.0267 1583.3L73.0331 1581.85L70.9973 1583.24C64.7812 1587.48 59.2245 1588.18 54.3439 1586.86C49.3187 1585.51 44.5245 1581.88 40.2967 1576.56C31.8002 1565.89 26.5 1549.55 26.5 1536.62C26.5 1522.89 31.9585 1511.54 39.7745 1506.48C43.6129 1503.99 48.1226 1502.93 53.177 1503.82C58.2876 1504.72 64.19 1507.67 70.582 1513.63L73.0242 1515.91L75.4142 1513.58C81.5641 1507.57 87.4943 1504.64 92.765 1503.78C98.0081 1502.92 102.855 1504.07 107.009 1506.67C115.413 1511.94 121.179 1523.38 120.436 1536.42C119.682 1549.64 113.714 1566.03 104.94 1576.69C100.566 1582.01 95.7348 1585.6 90.8109 1586.93C86.0573 1588.21 80.7863 1587.49 75.0267 1583.3Z" stroke="#1800AE" stroke-width="7"/>
<path d="M75.0267 1828.3L73.0331 1826.85L70.9973 1828.24C64.7812 1832.48 59.2245 1833.18 54.3439 1831.86C49.3187 1830.51 44.5245 1826.88 40.2967 1821.56C31.8002 1810.89 26.5 1794.55 26.5 1781.62C26.5 1767.89 31.9585 1756.54 39.7745 1751.48C43.6129 1748.99 48.1226 1747.93 53.177 1748.82C58.2876 1749.72 64.19 1752.67 70.582 1758.63L73.0242 1760.91L75.4142 1758.58C81.5641 1752.57 87.4943 1749.64 92.765 1748.78C98.0081 1747.92 102.855 1749.07 107.009 1751.67C115.413 1756.94 121.179 1768.38 120.436 1781.42C119.682 1794.64 113.714 1811.03 104.94 1821.69C100.566 1827.01 95.7348 1830.6 90.8109 1831.93C86.0573 1833.21 80.7863 1832.49 75.0267 1828.3Z" stroke="#1800AE" stroke-width="7"/>
<path d="M299.027 1828.3L297.033 1826.85L294.997 1828.24C288.781 1832.48 283.225 1833.18 278.344 1831.86C273.319 1830.51 268.525 1826.88 264.297 1821.56C255.8 1810.89 250.5 1794.55 250.5 1781.62C250.5 1767.89 255.958 1756.54 263.775 1751.48C267.613 1748.99 272.123 1747.93 277.177 1748.82C282.288 1749.72 288.19 1752.67 294.582 1758.63L297.024 1760.91L299.414 1758.58C305.564 1752.57 311.494 1749.64 316.765 1748.78C322.008 1747.92 326.855 1749.07 331.009 1751.67C339.413 1756.94 345.179 1768.38 344.436 1781.42C343.682 1794.64 337.714 1811.03 328.94 1821.69C324.566 1827.01 319.735 1830.6 314.811 1831.93C310.057 1833.21 304.786 1832.49 299.027 1828.3Z" stroke="#1800AE" stroke-width="7"/>
<path d="M299.027 2073.3L297.033 2071.85L294.997 2073.24C288.781 2077.48 283.225 2078.18 278.344 2076.86C273.319 2075.51 268.525 2071.88 264.297 2066.56C255.8 2055.89 250.5 2039.55 250.5 2026.62C250.5 2012.89 255.958 2001.54 263.775 1996.48C267.613 1993.99 272.123 1992.93 277.177 1993.82C282.288 1994.72 288.19 1997.67 294.582 2003.63L297.024 2005.91L299.414 2003.58C305.564 1997.57 311.494 1994.64 316.765 1993.78C322.008 1992.92 326.855 1994.07 331.009 1996.67C339.413 2001.94 345.179 2013.38 344.436 2026.42C343.682 2039.64 337.714 2056.03 328.94 2066.69C324.566 2072.01 319.735 2075.6 314.811 2076.93C310.057 2078.21 304.786 2077.49 299.027 2073.3Z" stroke="#1800AE" stroke-width="7"/>
<path d="M75.0267 2073.3L73.0331 2071.85L70.9973 2073.24C64.7812 2077.48 59.2245 2078.18 54.3439 2076.86C49.3187 2075.51 44.5245 2071.88 40.2967 2066.56C31.8002 2055.89 26.5 2039.55 26.5 2026.62C26.5 2012.89 31.9585 2001.54 39.7745 1996.48C43.6129 1993.99 48.1226 1992.93 53.177 1993.82C58.2876 1994.72 64.19 1997.67 70.582 2003.63L73.0242 2005.91L75.4142 2003.58C81.5641 1997.57 87.4943 1994.64 92.765 1993.78C98.0081 1992.92 102.855 1994.07 107.009 1996.67C115.413 2001.94 121.179 2013.38 120.436 2026.42C119.682 2039.64 113.714 2056.03 104.94 2066.69C100.566 2072.01 95.7348 2075.6 90.8109 2076.93C86.0573 2078.21 80.7863 2077.49 75.0267 2073.3Z" stroke="#1800AE" stroke-width="7"/>
<path d="M75.0267 2318.3L73.0331 2316.85L70.9973 2318.24C64.7812 2322.48 59.2245 2323.18 54.3439 2321.86C49.3187 2320.51 44.5245 2316.88 40.2967 2311.56C31.8002 2300.89 26.5 2284.55 26.5 2271.62C26.5 2257.89 31.9585 2246.54 39.7745 2241.48C43.6129 2238.99 48.1226 2237.93 53.177 2238.82C58.2876 2239.72 64.19 2242.67 70.582 2248.63L73.0242 2250.91L75.4142 2248.58C81.5641 2242.57 87.4943 2239.64 92.765 2238.78C98.0081 2237.92 102.855 2239.07 107.009 2241.67C115.413 2246.94 121.179 2258.38 120.436 2271.42C119.682 2284.64 113.714 2301.03 104.94 2311.69C100.566 2317.01 95.7348 2320.6 90.8109 2321.93C86.0573 2323.21 80.7863 2322.49 75.0267 2318.3Z" stroke="#1800AE" stroke-width="7"/>
<path d="M299.027 2318.3L297.033 2316.85L294.997 2318.24C288.781 2322.48 283.225 2323.18 278.344 2321.86C273.319 2320.51 268.525 2316.88 264.297 2311.56C255.8 2300.89 250.5 2284.55 250.5 2271.62C250.5 2257.89 255.958 2246.54 263.775 2241.48C267.613 2238.99 272.123 2237.93 277.177 2238.82C282.288 2239.72 288.19 2242.67 294.582 2248.63L297.024 2250.91L299.414 2248.58C305.564 2242.57 311.494 2239.64 316.765 2238.78C322.008 2237.92 326.855 2239.07 331.009 2241.67C339.413 2246.94 345.179 2258.38 344.436 2271.42C343.682 2284.64 337.714 2301.03 328.94 2311.69C324.566 2317.01 319.735 2320.6 314.811 2321.93C310.057 2323.21 304.786 2322.49 299.027 2318.3Z" stroke="#1800AE" stroke-width="7"/>
<circle cx="74" cy="1301" r="15" fill="#1800AE"/>
<circle cx="298" cy="1301" r="15" fill="#1800AE"/>
<circle cx="74" cy="1546" r="15" fill="#1800AE"/>
<circle cx="298" cy="1546" r="15" fill="#1800AE"/>
<circle cx="298" cy="1791" r="15" fill="#1800AE"/>
<circle cx="74" cy="1791" r="15" fill="#1800AE"/>
<circle cx="74" cy="2036" r="15" fill="#1800AE"/>
<circle cx="74" cy="2281" r="15" fill="#1800AE"/>
<circle cx="298" cy="2281" r="15" fill="#1800AE"/>
<circle cx="298" cy="2036" r="15" fill="#1800AE"/>
</svg>
