<svg width="525" height="540" viewBox="0 0 525 540" fill="none" xmlns="http://www.w3.org/2000/svg">
<path d="M297 70.078C274.858 62.5395 302.05 2.00016 260.117 2C218.83 1.99984 243.497 64.9183 226.689 70.3177C198.899 79.2445 185.543 10.3986 158.32 26.9451C131.096 43.4915 177.02 83.1525 158.32 101.901C137.255 123.021 119.54 50.03 91.1161 79.2888C57.2991 114.099 122.024 133.218 107.043 156.339C90.3786 182.058 56.9114 108.78 36.994 148.053C17.0767 187.326 87.6133 186.135 77.5619 215.649C67.1172 246.319 7.68488 194.626 2.1586 235.445C-1.72589 264.137 67.0316 252.831 67.0316 270" stroke="white" stroke-width="3"/>
<path d="M297 470C275 477 302.05 538 260.117 538C218.83 538 243.497 475.082 226.689 469.682C198.899 460.755 185.543 529.601 158.32 513.055C131.096 496.509 177.02 456.847 158.32 438.099C137.256 416.979 119.54 489.97 91.1161 460.711C57.2991 425.901 122.024 406.782 107.043 383.661C90.3786 357.942 56.9114 431.22 36.994 391.947C17.0766 352.674 87.6133 353.865 77.5619 324.351C67.1172 293.681 7.68489 345.374 2.1586 304.555C-1.72588 275.863 67.0316 287.169 67.0316 270" stroke="white" stroke-width="3"/>
<path d="M297 70.7673C324.806 79.6584 338.168 11.088 365.407 27.5682C392.646 44.0484 346.697 83.5507 365.407 102.224C386.483 123.259 404.208 50.5607 432.648 79.7025C466.484 114.373 401.723 133.415 416.713 156.444C433.386 182.06 466.872 109.076 486.801 148.192C506.729 187.308 436.153 186.121 446.21 215.517C456.661 246.064 511.399 195.649 521.656 235.234C534.093 283.235 456.139 239.137 456.139 270" stroke="white" stroke-width="3"/>
<path d="M297 470C324.806 461.109 338.168 528.912 365.407 512.432C392.646 495.952 346.697 456.449 365.407 437.776C386.483 416.741 404.208 489.44 432.648 460.298C466.484 425.627 401.723 406.585 416.713 383.556C433.386 357.94 466.872 430.924 486.801 391.809C506.729 352.693 436.153 353.879 446.21 324.483C456.661 293.936 511.399 344.351 521.656 304.766C534.093 256.766 456.139 300.864 456.139 270" stroke="white" stroke-width="3"/>
<circle r="168" transform="matrix(-1 0 0 1 262.5 269.5)" stroke="white" stroke-width="3"/>
<circle r="109.5" transform="matrix(-1 0 0 1 262 270)" stroke="#1800AE" stroke-width="7"/>
<circle r="49" transform="matrix(-1 0 0 1 262 270)" fill="#1800AE"/>
<circle cx="261.5" cy="130.5" r="16.5" fill="#1800AE"/>
<circle cx="122.5" cy="269.5" r="16.5" fill="#1800AE"/>
<circle cx="401.5" cy="269.5" r="16.5" fill="#1800AE"/>
<circle cx="261.5" cy="408.5" r="16.5" fill="#1800AE"/>
<circle cx="163.5" cy="367.5" r="16.5" fill="#1800AE"/>
<circle cx="163.5" cy="173.5" r="16.5" fill="#1800AE"/>
<circle cx="361.5" cy="173.5" r="16.5" fill="#1800AE"/>
<circle cx="358.5" cy="367.5" r="16.5" fill="#1800AE"/>
</svg>
