<svg width="371" height="673" viewBox="0 0 371 673" fill="none" xmlns="http://www.w3.org/2000/svg">
<path d="M186 624C213.062 624 235.5 642.938 235.5 670C235.5 670 213.062 670 186 670C158.938 670 138 669.999 138 669.999C138 642.937 158.938 624 186 624Z" fill="#1800AE"/>
<path d="M298 672.5C298 610.368 247.632 560 185.5 560C123.368 560 73 610.368 73 672.5" stroke="#1800AE" stroke-width="7"/>
<path d="M369 666C369 564.656 286.844 483 185.5 483C84.1557 483 2 564.656 2 666" stroke="white" stroke-width="3"/>
<path d="M185 48.5003C157.938 48.5003 135.5 29.5621 135.5 2.5001C135.5 2.5001 157.938 2.5 185 2.5C212.062 2.5 233 2.5009 233 2.5009C233 29.5628 212.062 48.5003 185 48.5003Z" fill="#1800AE"/>
<path d="M73 0C73 62.132 123.368 112.5 185.5 112.5C247.632 112.5 298 62.132 298 0" stroke="#1800AE" stroke-width="7"/>
<path d="M2 6.5C2 107.844 84.1557 189.5 185.5 189.5C286.844 189.5 369 107.844 369 6.5" stroke="white" stroke-width="3"/>
<circle cx="186" cy="151" r="18" fill="#1800AE"/>
<circle cx="91" cy="113" r="18" fill="#1800AE"/>
<circle cx="91" cy="560" r="18" fill="#1800AE"/>
<circle cx="280" cy="113" r="18" fill="#1800AE"/>
<circle cx="280" cy="560" r="18" fill="#1800AE"/>
<circle cx="40" cy="31" r="18" fill="#1800AE"/>
<circle cx="40" cy="635" r="18" fill="#1800AE"/>
<circle cx="332" cy="31" r="18" fill="#1800AE"/>
<circle cx="332" cy="635" r="18" fill="#1800AE"/>
<circle cx="186" cy="524" r="18" fill="#1800AE"/>
</svg>
