<svg width="34" height="934" viewBox="0 0 34 934" fill="none" xmlns="http://www.w3.org/2000/svg">
<circle cx="16.5011" cy="16.5012" r="16.4912" transform="rotate(-90.0334 16.5011 16.5012)" fill="#1800AE"/>
<circle cx="16.5011" cy="106.501" r="16.4912" transform="rotate(-90.0334 16.5011 106.501)" fill="#1800AE"/>
<circle cx="16.5011" cy="286.501" r="16.4912" transform="rotate(-90.0334 16.5011 286.501)" fill="#1800AE"/>
<circle cx="16.5011" cy="376.501" r="16.4912" transform="rotate(-90.0334 16.5011 376.501)" fill="#1800AE"/>
<circle cx="16.5011" cy="466.501" r="16.4912" transform="rotate(-90.0334 16.5011 466.501)" fill="#1800AE"/>
<circle cx="16.5011" cy="556.501" r="16.4912" transform="rotate(-90.0334 16.5011 556.501)" fill="#1800AE"/>
<circle cx="16.5011" cy="646.501" r="16.4912" transform="rotate(-90.0334 16.5011 646.501)" fill="#1800AE"/>
<circle cx="16.5011" cy="736.501" r="16.4912" transform="rotate(-90.0334 16.5011 736.501)" fill="#1800AE"/>
<circle cx="16.5011" cy="826.501" r="16.4912" transform="rotate(-90.0334 16.5011 826.501)" fill="#1800AE"/>
<circle cx="16.5011" cy="916.501" r="16.4912" transform="rotate(-90.0334 16.5011 916.501)" fill="#1800AE"/>
<circle cx="16.5011" cy="197.501" r="16.4912" transform="rotate(-90.0334 16.5011 197.501)" fill="#1800AE"/>
</svg>
