<svg width="886" height="312" viewBox="0 0 886 312" fill="none" xmlns="http://www.w3.org/2000/svg">
<circle cx="434" cy="173" r="32" fill="#1800AE"/>
<path d="M0 2.27734C271.386 2.27734 305.5 301.33 193.5 301.33C81.5 301.33 181.773 2.08463 272.386 2.08463C363 2.08463 455.026 301.33 339.5 301.33C223.974 301.33 293.275 0.405023 413.366 2.08463C533.062 3.75871 588.197 301.33 481.653 301.33C375.109 301.33 438.374 -3.82104 558.751 2.08463C677.767 7.92357 714.717 301.33 620.429 301.33C526.142 301.33 563.881 2.08404 688 2.08394C805.987 2.08384 684.773 309.778 886 309.778" stroke="white" stroke-width="3"/>
<path d="M848.502 172.982C848.502 172.982 848.502 172.984 848.5 172.989C848.501 172.984 848.502 172.982 848.502 172.982ZM848.332 172.755C848.447 172.887 848.486 172.967 848.497 173C848.486 173.033 848.447 173.113 848.332 173.245C848.124 173.481 847.743 173.791 847.111 174.15C845.848 174.867 843.872 175.623 841.141 176.393C835.702 177.927 827.612 179.423 817.106 180.856C796.113 183.719 765.698 186.302 728.07 188.473C652.826 192.814 548.856 195.5 434 195.5C319.144 195.5 215.174 192.814 139.93 188.473C102.302 186.302 71.8869 183.719 50.8941 180.856C40.3877 179.423 32.2977 177.927 26.8587 176.393C24.1276 175.623 22.1516 174.867 20.8887 174.15C20.2567 173.791 19.8758 173.481 19.6681 173.245C19.5526 173.113 19.5145 173.033 19.5029 173C19.5145 172.967 19.5526 172.887 19.6681 172.755C19.8758 172.519 20.2567 172.209 20.8887 171.85C22.1516 171.133 24.1276 170.377 26.8587 169.607C32.2977 168.073 40.3877 166.577 50.8941 165.144C71.8869 162.281 102.302 159.698 139.93 157.527C215.174 153.186 319.144 150.5 434 150.5C548.856 150.5 652.826 153.186 728.07 157.527C765.698 159.698 796.113 162.281 817.106 165.144C827.612 166.577 835.702 168.073 841.141 169.607C843.872 170.377 845.848 171.133 847.111 171.85C847.743 172.209 848.124 172.519 848.332 172.755ZM19.4983 172.982C19.4985 172.982 19.4991 172.985 19.4996 172.989C19.4983 172.984 19.4981 172.982 19.4983 172.982ZM19.4983 173.018C19.4981 173.018 19.4983 173.016 19.4996 173.011C19.4991 173.015 19.4985 173.018 19.4983 173.018Z" stroke="white" stroke-width="3"/>
<path d="M663.5 172.5C663.5 174.997 662.39 177.733 659.668 180.725C656.927 183.736 652.719 186.809 647.008 189.845C635.59 195.914 618.838 201.488 597.842 206.208C555.906 215.637 497.8 221.5 433.5 221.5C369.2 221.5 311.094 215.637 269.158 206.208C248.162 201.488 231.41 195.914 219.992 189.845C214.281 186.809 210.073 183.736 207.332 180.725C204.61 177.733 203.5 174.997 203.5 172.5C203.5 170.003 204.61 167.267 207.332 164.275C210.073 161.264 214.281 158.191 219.992 155.155C231.41 149.086 248.162 143.512 269.158 138.792C311.094 129.363 369.2 123.5 433.5 123.5C497.8 123.5 555.906 129.363 597.842 138.792C618.838 143.512 635.59 149.086 647.008 155.155C652.719 158.191 656.927 161.264 659.668 164.275C662.39 167.267 663.5 170.003 663.5 172.5Z" stroke="#1800AE" stroke-width="7"/>
</svg>
